<!-- icon666.com - MILLIONS vector ICONS FREE --><svg version="1.1" id="Capa_1" xmlns="http://www.w3.org/2000/svg" xmlns:xlink="http://www.w3.org/1999/xlink" x="0px" y="0px" viewBox="0 0 512.001 512.001" style="enable-background:new 0 0 512.001 512.001;" xml:space="preserve"><g><g><path d="M380.284,303.311l-39.28-30.05c-13.443-10.24-32.38-8.989-44.36,2.93l-15.35,15.35 c-11.723-2.909-22.627-8.457-31.88-16.22l-1.34-1.13c-3.729-3.135-7.179-6.588-10.31-10.32l-1.09-1.3 c-7.771-9.257-13.322-20.169-16.23-31.9l15.34-15.34c11.911-11.967,13.174-30.885,2.96-44.33l-30.05-39.24 c-9.877-12.954-27.342-17.455-42.25-10.89l-4.46,2c-26.245,11.563-43.429,37.268-44.08,65.94 c-0.973,47.491,15.335,93.72,45.89,130.09l2,2.33c7.597,9.038,15.962,17.403,25,25l2.33,2 c35.328,29.643,79.963,45.903,126.08,45.93c1.333,0,2.697,0,4.09,0c28.683-0.673,54.384-17.89,65.92-44.16l2-4.46 C397.752,330.629,393.236,313.179,380.284,303.311z M367.354,335.131v-0.01l-2,4.46c-7.478,16.978-24.104,28.095-42.65,28.52 c-1.19,0-2.38,0-3.56,0c-39.986-0.019-78.69-14.109-109.33-39.8l-2.33-2c-7.892-6.634-15.196-13.938-21.83-21.83l-2-2.34 c-26.519-31.566-40.663-71.692-39.8-112.91c0.424-18.549,11.541-35.179,28.52-42.66l4.46-2c3.962-1.717,8.584-0.488,11.17,2.97 l30.05,39.24c2.351,3.081,2.065,7.424-0.67,10.17l-20.28,20.29c-2.957,2.956-4.311,7.153-3.64,11.28 c3.054,18.723,11.107,36.275,23.31,50.8l1.09,1.29c4.092,4.871,8.599,9.378,13.47,13.47l1.34,1.13 c14.521,12.186,32.061,20.228,50.77,23.28c4.13,0.674,8.332-0.68,11.29-3.64l20.29-20.29c2.748-2.73,7.088-3.016,10.17-0.67 l39.28,30.12C367.877,326.608,369.065,331.2,367.354,335.131z"></path></g></g><g><g><path d="M437.004,75.001c-47.897-48.168-113.072-75.175-181-75C126.277-0.005,17.052,97.027,1.774,225.851 c-6.313,54.054,4.659,108.718,31.34,156.15l-21.6,74.37c-5.479,18.877,5.382,38.621,24.259,44.1c6.48,1.881,13.361,1.881,19.841,0 l74.39-21.58c38.562,21.709,82.068,33.112,126.32,33.11c141.385-0.198,255.839-114.973,255.641-256.358 C511.87,187.881,484.914,122.921,437.004,75.001z M418.634,418.641c-36.401,36.673-84.197,59.867-135.53,65.77 c-50.316,5.892-101.174-4.901-144.76-30.72c-3.096-1.846-6.819-2.324-10.28-1.32l-79.7,23.15 c-5.087,1.474-10.406-1.455-11.88-6.542c-0.505-1.743-0.505-3.594,0-5.338l23.15-79.71c1.004-3.461,0.526-7.185-1.32-10.28 c-25.819-43.586-36.612-94.444-30.72-144.76C41.331,113.159,139.46,25.994,256.004,26.001c127.026,0,230,102.974,230.001,229.999 C486.005,317.003,461.771,375.507,418.634,418.641z"></path></g></g></svg>